<?xml version="1.0" encoding="UTF-8" standalone="no"?><!DOCTYPE svg PUBLIC "-//W3C//DTD SVG 1.1//EN" "http://www.w3.org/Graphics/SVG/1.1/DTD/svg11.dtd"><svg width="100%" height="100%" viewBox="0 0 9 9" version="1.1" xmlns="http://www.w3.org/2000/svg" xmlns:xlink="http://www.w3.org/1999/xlink" xml:space="preserve" style="fill-rule:evenodd;clip-rule:evenodd;stroke-linejoin:round;stroke-miterlimit:1.41421;"><path id="FileOutline" d="M7.5,0.75l1.5,1.5c0,0 0,3.261 0,5.25c0,0.828 -0.672,1.5 -1.5,1.5c-0.916,0 -2.084,0 -3,0c-0.398,0 -0.779,-0.158 -1.061,-0.439c-0.281,-0.282 -0.439,-0.663 -0.439,-1.061c0,-2.379 0,-6.75 0,-6.75l4.5,0Z" style="fill:#f6f6f6;"/><path id="FileBg" d="M8.25,3c0,0 0,3.049 0,4.5c0,0.199 -0.079,0.39 -0.22,0.53c-0.14,0.141 -0.331,0.22 -0.53,0.22c-0.832,0 -2.168,0 -3,0c-0.199,0 -0.39,-0.079 -0.53,-0.22c-0.141,-0.14 -0.22,-0.331 -0.22,-0.53c0,-1.28 0,-3.75 0,-3.75l2.25,0l0,-2.25l0.75,0l1.5,1.5Z" style="fill:#424242;fill-rule:nonzero;"/><path id="FileFg" d="M4.5,2.25l0,5.25l3,0l0,-3.75l-1.5,0l0,-1.5l-1.5,0Z" style="fill:#f6f6f6;"/><path id="ArrowBg" d="M0.75,0l3.375,0l1.875,1.875l-1.875,1.875l-1.125,0l0,1.5c0,0 -0.32,0 -0.75,0c-0.597,0 -1.169,-0.237 -1.591,-0.659c-0.422,-0.422 -0.659,-0.994 -0.659,-1.591c0,-1.015 0.673,-1.874 1.596,-2.154l-0.846,-0.846Z" style="fill:#f6f6f6;"/><path id="ArrowFg" d="M3.75,0.75l-1.5,0l0.75,0.75c0,0 -0.337,0 -0.75,0c-0.398,0 -0.779,0.158 -1.061,0.439c-0.281,0.282 -0.439,0.663 -0.439,1.061c0,0.001 0,0.001 0,0.002c0,0.827 0.671,1.498 1.499,1.498c0,0 0.001,0 0.001,0l0,-0.75c0,0 0,0 0,0c-0.414,0 -0.75,-0.336 -0.75,-0.75c0,-0.414 0.336,-0.75 0.75,-0.75c0.375,0 0.75,0 0.75,0l-0.75,0.75l1.5,0l1.125,-1.125l-1.125,-1.125Z" style="fill:#00539c;fill-rule:nonzero;"/></svg>