<?xml version="1.0" encoding="UTF-8" standalone="no"?><!DOCTYPE svg PUBLIC "-//W3C//DTD SVG 1.1//EN" "http://www.w3.org/Graphics/SVG/1.1/DTD/svg11.dtd"><svg width="100%" height="100%" viewBox="0 0 16 16" version="1.1" xmlns="http://www.w3.org/2000/svg" xmlns:xlink="http://www.w3.org/1999/xlink" xml:space="preserve" style="fill-rule:evenodd;clip-rule:evenodd;stroke-linejoin:round;stroke-miterlimit:1.41421;">
<path id="FolderOutline" d="M16,5.026c0,-1.119 -0.907,-2.026 -2.026,-2.026c-3.177,0 -8.974,0 -8.974,0l0,5l-4,-0.096l0,1.096l-1,0l0,1l2.323,6c0,0 7.844,0 11.651,0c0.538,0 1.053,-0.213 1.433,-0.593c0.38,-0.38 0.593,-0.895 0.593,-1.433c0,-2.438 0,-6.51 0,-8.948Z" style="fill:#f6f6f6;"/>
<path id="FolderBg" d="M14,4l-4.568,0l-1.006,1l5.574,0l0,9.984c0,0 1,0.016 1,-0.984l0,-9c0,-1 -1,-1 -1,-1" style="fill:#dcb67a;fill-rule:nonzero;"/>
<path id="FolderFg" d="M14,5l-11,0l0,9.984l11,0.016l0,-10Z" style="fill:#f0eff1;fill-rule:nonzero;"/>
<path id="FolderPan" d="M3,10l0,-1l-1,0l0,1l-1,0l2,5l11,0l-3,-5l-8,0Z" style="fill:#dcb67a;fill-rule:nonzero;"/>
<path id="ArrowOutline" d="M1.5,0l5,0l3.5,3.5l-3.5,3.5l-1.5,0l0,2c0,0 -0.66,0 -1.5,0c-1.933,0 -3.5,-1.567 -3.5,-3.5c0,-1.933 1.567,-3.5 3.5,-3.5c0,0 0,0 0,0l-2,-2Z" style="fill:#f6f6f6;"/>
<path id="ArrowFg" d="M6,1l-2,0l1.987,2c0,0 -1.242,0 -2.487,0c-0.663,0 -1.299,0.263 -1.768,0.732c-0.469,0.469 -0.732,1.105 -0.732,1.768c0,1.381 1.119,2.5 2.5,2.5c0.299,0 0.5,0 0.5,0l0,-1c0,0 -0.213,0 -0.5,0c-0.398,0 -0.779,-0.158 -1.061,-0.439c-0.281,-0.281 -0.439,-0.663 -0.439,-1.061c0,0 0,0 0,0c0,-0.398 0.158,-0.779 0.439,-1.061c0.282,-0.281 0.663,-0.439 1.061,-0.439c1.14,0 2.513,0 2.513,0l-2.013,2l2,0l2.5,-2.484l-2.5,-2.516Z" style="fill:#00539c;fill-rule:nonzero;"/></svg>