<?xml version="1.0" encoding="UTF-8" standalone="no"?>
<!DOCTYPE svg PUBLIC "-//W3C//DTD SVG 1.1//EN" "http://www.w3.org/Graphics/SVG/1.1/DTD/svg11.dtd">
<svg width="100%" height="100%" viewBox="0 0 16 16" version="1.1" xmlns="http://www.w3.org/2000/svg" xmlns:xlink="http://www.w3.org/1999/xlink" xml:space="preserve" style="fill-rule:evenodd;clip-rule:evenodd;stroke-linejoin:round;stroke-miterlimit:1.41421;">
    <path id="Outline" d="M6,0L6,6L0,6L0,16L10,16L10,10L16,10L16,2.586L13.414,0L6,0Z" style="fill:rgb(246,246,246);fill-rule:nonzero;"/>
    <path id="Bg" d="M7,10L3,10L3,7L1,7L1,15L9,15L9,9L7,7L7,10ZM13,1L13,4L9,4L9,1L7,1L7,6L8,6L10,8L10,9L15,9L15,3L13,1ZM12,1L11,1L11,3L12,3L12,1ZM6,9L5,9L5,7L6,7L6,9Z" style="fill:rgb(0,83,156);fill-rule:nonzero;"/>
</svg>
